<svg xmlns="http://www.w3.org/2000/svg" width="26" height="19" viewBox="0 0 26 19">
    <path fill="#243039" fill-opacity=".45" fill-rule="evenodd" d="M15.439 8.336l-3.44-3.428-.688-.686-1.377 1.372.689.686 3.443 3.433-3.427 3.439-.686.688 1.372 1.377.686-.688 3.432-3.444 3.44 3.428.688.686 1.376-1.372-.688-.686-3.444-3.432 3.428-3.44.686-.687-1.372-1.377-.686.688-3.432 3.443zM7.572 19L.265 10.261a1.228 1.228 0 0 1 0-1.522L7.572 0h16.314c1.1 0 1.994.89 1.994 1.997v15.006A1.997 1.997 0 0 1 23.886 19H7.572z"/>
</svg>
